<?xml version="1.0" encoding="utf-8"?>
<!-- Generator: Adobe Illustrator 24.2.1, SVG Export Plug-In . SVG Version: 6.00 Build 0)  -->
<svg version="1.1" id="图层_1" xmlns="http://www.w3.org/2000/svg" xmlns:xlink="http://www.w3.org/1999/xlink" x="0px" y="0px"
	 viewBox="0 0 23.3 28.9" style="enable-background:new 0 0 23.3 28.9;" xml:space="preserve">
<style type="text/css">
	.st0{fill:#53B332;}
</style>
<path class="st0" d="M11.6,6.9c-0.2-0.2-0.5-0.3-0.8-0.3H1.4C0.8,6.7,0,7,0,7.7v19.8c0.1,0.7,0.7,1.3,1.4,1.4h14.9
	c0.6,0,1-0.8,1-1.4V13.1c0-0.3-0.1-0.5-0.3-0.8L11.6,6.9z M14.7,13.3h-4.1V9.1L14.7,13.3z M2.5,26.4V8.8h6v5.4
	c0,0.6,0.5,1.2,1.2,1.2h5.4v11L2.5,26.4z M23.1,5.7l-5.4-5.5C17.5,0.1,17.2,0,17,0H7.6c-0.5,0-1,0.3-1,0.8v3c0,0.5,0.4,0.9,0.9,0.9
	c0,0,0,0,0,0c0.5,0,0.9-0.4,0.9-0.9V1.9h6.6v5.3c0,0.6,0.4,1,1,1h5.3v11.6h-1.3c-0.5,0-0.9,0.4-0.9,0.9c0,0,0,0,0,0
	c0,0.5,0.4,0.9,0.9,1h2.4c0.5,0,0.8-0.5,0.8-1V6.3C23.3,6.1,23.2,5.9,23.1,5.7z M17,2.2L21,6.3H17V2.2z"/>
</svg>
