<?xml version="1.0" encoding="utf-8"?>
<!-- Generator: Adobe Illustrator 24.2.1, SVG Export Plug-In . SVG Version: 6.00 Build 0)  -->
<svg version="1.1" id="图层_1" xmlns="http://www.w3.org/2000/svg" xmlns:xlink="http://www.w3.org/1999/xlink" x="0px" y="0px"
	 viewBox="0 0 24 24" style="enable-background:new 0 0 24 24;" xml:space="preserve">
<style type="text/css">
	.st0{fill:#FFFFFF;stroke:#000000;stroke-miterlimit:10;}
</style>
<g>
	<g>
		<path d="M17.2,7.7h-1V5.8c0-2.2-1.8-4-4-4s-4,1.8-4,4v1.9h-1c-1.7,0-3,1.3-3,3v8c0,1.7,1.3,3,3,3h10c1.7,0,3-1.3,3-3v-8
			C20.2,9.1,18.9,7.7,17.2,7.7z M10.2,5.8c0-1.1,0.9-2.1,2-2.1c1.1,0,2,1,2,2.1v1.9h-4V5.8z"/>
	</g>
</g>
<path class="st0" d="M13.3,16.5H7.5c-0.8,0-1.4-0.6-1.4-1.4v-4.3c0-0.8,0.6-1.4,1.4-1.4h5.8c0.8,0,1.4,0.6,1.4,1.4v4.3
	C14.7,15.9,14,16.5,13.3,16.5z"/>
<path class="st0" d="M17.9,20h-5.8c-0.8,0-1.4-0.6-1.4-1.4v-4.3c0-0.8,0.6-1.4,1.4-1.4h5.8c0.8,0,1.4,0.6,1.4,1.4v4.3
	C19.3,19.4,18.7,20,17.9,20z"/>
</svg>
