<?xml version="1.0" encoding="utf-8"?>
<!-- Generator: Adobe Illustrator 24.2.1, SVG Export Plug-In . SVG Version: 6.00 Build 0)  -->
<svg version="1.1" id="图层_1" xmlns="http://www.w3.org/2000/svg" xmlns:xlink="http://www.w3.org/1999/xlink" x="0px" y="0px"
	 viewBox="0 0 24 24" style="enable-background:new 0 0 24 24;" xml:space="preserve">
<style type="text/css">
	.st0{fill:#FFFFFF;}
</style>
<g>
	<g>
		<path d="M17.2,7.7h-1V5.8c0-2.2-1.8-4-4-4s-4,1.8-4,4v1.9h-1c-1.7,0-3,1.3-3,3v8c0,1.7,1.3,3,3,3h10c1.7,0,3-1.3,3-3v-8
			C20.2,9.1,18.9,7.7,17.2,7.7z M10.2,5.8c0-1.1,0.9-2.1,2-2.1c1.1,0,2,1,2,2.1v1.9h-4V5.8z"/>
	</g>
</g>
<path class="st0" d="M17.1,10.3l-10.1,0c-0.2,0-0.4-0.2-0.4-0.5v0c0-0.3,0.2-0.5,0.4-0.5l10.1,0c0.2,0,0.4,0.2,0.4,0.5v0
	C17.4,10.1,17.3,10.3,17.1,10.3z"/>
<path class="st0" d="M15,12.6l-8.1,0c-0.2,0-0.3-0.2-0.3-0.5v0c0-0.3,0.2-0.5,0.3-0.5l8.1,0c0.2,0,0.4,0.2,0.4,0.5v0
	C15.4,12.4,15.2,12.6,15,12.6z"/>
<path class="st0" d="M12.3,14.8l-5.4,0c-0.2,0-0.4-0.2-0.4-0.5v0c0-0.3,0.2-0.5,0.4-0.5l5.4,0c0.2,0,0.4,0.2,0.4,0.5v0
	C12.7,14.5,12.5,14.8,12.3,14.8z"/>
<circle class="st0" cx="16.7" cy="17.5" r="2.4"/>
</svg>
