<?xml version="1.0" encoding="utf-8"?>
<!-- Generator: Adobe Illustrator 24.2.1, SVG Export Plug-In . SVG Version: 6.00 Build 0)  -->
<svg version="1.1" id="图层_1" xmlns="http://www.w3.org/2000/svg" xmlns:xlink="http://www.w3.org/1999/xlink" x="0px" y="0px"
	 viewBox="0 0 24 24" style="enable-background:new 0 0 24 24;" xml:space="preserve">
<g>
	<g>
		<path d="M18,9h-3V5.7C15,4.2,13.8,3,12.3,3H5.7C4.2,3,3,4.2,3,5.7v6.7C3,13.8,4.2,15,5.7,15H9v3c0,1.7,1.3,3,3,3h6
			c1.7,0,3-1.3,3-3v-6C21,10.3,19.7,9,18,9z M9,12v1H5.7C5.3,13,5,12.7,5,12.3l0,0V5.7C5,5.3,5.3,5,5.7,5l0,0h6.7
			C12.7,5,13,5.3,13,5.7l0,0V9h-1C10.3,9,9,10.3,9,12z"/>
	</g>
</g>
</svg>
